<mxfile host="app.diagrams.net" modified="2024-06-15T21:11:01.934Z" agent="Mozilla/5.0 (Windows NT 10.0; Win64; x64) AppleWebKit/537.36 (KHTML, like Gecko) Chrome/125.0.0.0 Safari/537.36" etag="Tv-QEz30E9YsuScEAO3u" version="24.5.4" type="device">
  <diagram name="Page-1" id="13e1069c-82ec-6db2-03f1-153e76fe0fe0">
    <mxGraphModel dx="733" dy="390" grid="1" gridSize="10" guides="1" tooltips="1" connect="1" arrows="1" fold="1" page="1" pageScale="1" pageWidth="1100" pageHeight="850" background="none" math="0" shadow="0">
      <root>
        <mxCell id="0" />
        <mxCell id="1" parent="0" />
        <mxCell id="3YAM8sDZicmcJr7H5GmP-1" value="&lt;font style=&quot;font-size: 21px;&quot;&gt;Usuário&lt;/font&gt;" style="rounded=0;whiteSpace=wrap;html=1;" parent="1" vertex="1">
          <mxGeometry x="120" y="170" width="120" height="60" as="geometry" />
        </mxCell>
        <mxCell id="3YAM8sDZicmcJr7H5GmP-4" value="" style="shape=umlActor;verticalLabelPosition=bottom;verticalAlign=top;html=1;outlineConnect=0;" parent="1" vertex="1">
          <mxGeometry x="165" y="90" width="30" height="60" as="geometry" />
        </mxCell>
        <mxCell id="3YAM8sDZicmcJr7H5GmP-6" value="&lt;font style=&quot;font-size: 21px;&quot;&gt;Banco de dados&lt;/font&gt;" style="rounded=0;whiteSpace=wrap;html=1;" parent="1" vertex="1">
          <mxGeometry x="680" y="170" width="120" height="60" as="geometry" />
        </mxCell>
        <mxCell id="3YAM8sDZicmcJr7H5GmP-7" value="" style="html=1;points=[[0,0,0,0,5],[0,1,0,0,-5],[1,0,0,0,5],[1,1,0,0,-5]];perimeter=orthogonalPerimeter;outlineConnect=0;targetShapes=umlLifeline;portConstraint=eastwest;newEdgeStyle={&quot;curved&quot;:0,&quot;rounded&quot;:0};" parent="1" vertex="1">
          <mxGeometry x="175" y="300" width="10" height="80" as="geometry" />
        </mxCell>
        <mxCell id="3YAM8sDZicmcJr7H5GmP-9" value="" style="endArrow=none;dashed=1;html=1;dashPattern=1 3;strokeWidth=2;rounded=0;" parent="1" target="3YAM8sDZicmcJr7H5GmP-1" edge="1">
          <mxGeometry width="50" height="50" relative="1" as="geometry">
            <mxPoint x="180" y="300" as="sourcePoint" />
            <mxPoint x="150" y="280" as="targetPoint" />
          </mxGeometry>
        </mxCell>
        <mxCell id="3YAM8sDZicmcJr7H5GmP-10" value="" style="html=1;points=[[0,0,0,0,5],[0,1,0,0,-5],[1,0,0,0,5],[1,1,0,0,-5]];perimeter=orthogonalPerimeter;outlineConnect=0;targetShapes=umlLifeline;portConstraint=eastwest;newEdgeStyle={&quot;curved&quot;:0,&quot;rounded&quot;:0};" parent="1" vertex="1">
          <mxGeometry x="455" y="300" width="10" height="40" as="geometry" />
        </mxCell>
        <mxCell id="3YAM8sDZicmcJr7H5GmP-11" value="" style="endArrow=none;dashed=1;html=1;dashPattern=1 3;strokeWidth=2;rounded=0;" parent="1" edge="1">
          <mxGeometry width="50" height="50" relative="1" as="geometry">
            <mxPoint x="460" y="300" as="sourcePoint" />
            <mxPoint x="460" y="230" as="targetPoint" />
          </mxGeometry>
        </mxCell>
        <mxCell id="3YAM8sDZicmcJr7H5GmP-12" value="" style="html=1;points=[[0,0,0,0,5],[0,1,0,0,-5],[1,0,0,0,5],[1,1,0,0,-5]];perimeter=orthogonalPerimeter;outlineConnect=0;targetShapes=umlLifeline;portConstraint=eastwest;newEdgeStyle={&quot;curved&quot;:0,&quot;rounded&quot;:0};" parent="1" vertex="1">
          <mxGeometry x="735" y="1030" width="10" height="110" as="geometry" />
        </mxCell>
        <mxCell id="3YAM8sDZicmcJr7H5GmP-13" value="" style="endArrow=none;dashed=1;html=1;dashPattern=1 3;strokeWidth=2;rounded=0;" parent="1" edge="1" source="3YAM8sDZicmcJr7H5GmP-12">
          <mxGeometry width="50" height="50" relative="1" as="geometry">
            <mxPoint x="740" y="300" as="sourcePoint" />
            <mxPoint x="740" y="230" as="targetPoint" />
          </mxGeometry>
        </mxCell>
        <mxCell id="3YAM8sDZicmcJr7H5GmP-16" value="Acessar página inicial do sisetma ()" style="endArrow=block;endFill=1;html=1;edgeStyle=orthogonalEdgeStyle;align=left;verticalAlign=top;rounded=0;" parent="1" edge="1">
          <mxGeometry x="-1" relative="1" as="geometry">
            <mxPoint x="190" y="310" as="sourcePoint" />
            <mxPoint x="450" y="310" as="targetPoint" />
          </mxGeometry>
        </mxCell>
        <mxCell id="3YAM8sDZicmcJr7H5GmP-17" value="1" style="edgeLabel;resizable=0;html=1;align=left;verticalAlign=bottom;" parent="3YAM8sDZicmcJr7H5GmP-16" connectable="0" vertex="1">
          <mxGeometry x="-1" relative="1" as="geometry" />
        </mxCell>
        <mxCell id="3YAM8sDZicmcJr7H5GmP-18" value="&lt;font style=&quot;font-size: 21px;&quot;&gt;Sistema&lt;/font&gt;" style="shape=umlBoundary;whiteSpace=wrap;html=1;" parent="1" vertex="1">
          <mxGeometry x="400" y="150" width="100" height="80" as="geometry" />
        </mxCell>
        <mxCell id="3YAM8sDZicmcJr7H5GmP-19" value="" style="endArrow=none;dashed=1;html=1;dashPattern=1 3;strokeWidth=2;rounded=0;" parent="1" source="3YAM8sDZicmcJr7H5GmP-20" edge="1">
          <mxGeometry width="50" height="50" relative="1" as="geometry">
            <mxPoint x="460.34" y="360" as="sourcePoint" />
            <mxPoint x="459.66999999999996" y="340" as="targetPoint" />
          </mxGeometry>
        </mxCell>
        <mxCell id="3YAM8sDZicmcJr7H5GmP-21" style="edgeStyle=orthogonalEdgeStyle;rounded=0;orthogonalLoop=1;jettySize=auto;html=1;curved=0;exitX=1;exitY=0;exitDx=0;exitDy=5;exitPerimeter=0;" parent="1" source="3YAM8sDZicmcJr7H5GmP-20" target="3YAM8sDZicmcJr7H5GmP-22" edge="1">
          <mxGeometry relative="1" as="geometry">
            <mxPoint x="540" y="390" as="targetPoint" />
            <Array as="points">
              <mxPoint x="485" y="365" />
              <mxPoint x="485" y="390" />
            </Array>
          </mxGeometry>
        </mxCell>
        <mxCell id="3YAM8sDZicmcJr7H5GmP-20" value="" style="html=1;points=[[0,0,0,0,5],[0,1,0,0,-5],[1,0,0,0,5],[1,1,0,0,-5]];perimeter=orthogonalPerimeter;outlineConnect=0;targetShapes=umlLifeline;portConstraint=eastwest;newEdgeStyle={&quot;curved&quot;:0,&quot;rounded&quot;:0};" parent="1" vertex="1">
          <mxGeometry x="455" y="360" width="10" height="80" as="geometry" />
        </mxCell>
        <mxCell id="3YAM8sDZicmcJr7H5GmP-22" value="" style="html=1;points=[[0,0,0,0,5],[0,1,0,0,-5],[1,0,0,0,5],[1,1,0,0,-5]];perimeter=orthogonalPerimeter;outlineConnect=0;targetShapes=umlLifeline;portConstraint=eastwest;newEdgeStyle={&quot;curved&quot;:0,&quot;rounded&quot;:0};" parent="1" vertex="1">
          <mxGeometry x="465" y="385" width="10" height="25" as="geometry" />
        </mxCell>
        <mxCell id="3YAM8sDZicmcJr7H5GmP-26" value="2 Exibir página inicial&amp;nbsp;&lt;span style=&quot;background-color: initial;&quot;&gt;()&lt;/span&gt;" style="text;html=1;align=center;verticalAlign=middle;whiteSpace=wrap;rounded=0;fontSize=11;" parent="1" vertex="1">
          <mxGeometry x="442" y="340" width="170" height="30" as="geometry" />
        </mxCell>
        <mxCell id="3YAM8sDZicmcJr7H5GmP-27" value="" style="html=1;points=[[0,0,0,0,5],[0,1,0,0,-5],[1,0,0,0,5],[1,1,0,0,-5]];perimeter=orthogonalPerimeter;outlineConnect=0;targetShapes=umlLifeline;portConstraint=eastwest;newEdgeStyle={&quot;curved&quot;:0,&quot;rounded&quot;:0};" parent="1" vertex="1">
          <mxGeometry x="455" y="470" width="10" height="40" as="geometry" />
        </mxCell>
        <mxCell id="3YAM8sDZicmcJr7H5GmP-28" value="" style="endArrow=none;dashed=1;html=1;dashPattern=1 3;strokeWidth=2;rounded=0;" parent="1" source="3YAM8sDZicmcJr7H5GmP-27" edge="1">
          <mxGeometry width="50" height="50" relative="1" as="geometry">
            <mxPoint x="460.17" y="460" as="sourcePoint" />
            <mxPoint x="459.84" y="440" as="targetPoint" />
          </mxGeometry>
        </mxCell>
        <mxCell id="3YAM8sDZicmcJr7H5GmP-29" value="" style="endArrow=none;dashed=1;html=1;dashPattern=1 3;strokeWidth=2;rounded=0;" parent="1" source="3YAM8sDZicmcJr7H5GmP-30" target="3YAM8sDZicmcJr7H5GmP-7" edge="1">
          <mxGeometry width="50" height="50" relative="1" as="geometry">
            <mxPoint x="179.85" y="450" as="sourcePoint" />
            <mxPoint x="179.85" y="380" as="targetPoint" />
          </mxGeometry>
        </mxCell>
        <mxCell id="3YAM8sDZicmcJr7H5GmP-30" value="" style="html=1;points=[[0,0,0,0,5],[0,1,0,0,-5],[1,0,0,0,5],[1,1,0,0,-5]];perimeter=orthogonalPerimeter;outlineConnect=0;targetShapes=umlLifeline;portConstraint=eastwest;newEdgeStyle={&quot;curved&quot;:0,&quot;rounded&quot;:0};" parent="1" vertex="1">
          <mxGeometry x="175" y="470" width="10" height="40" as="geometry" />
        </mxCell>
        <mxCell id="3YAM8sDZicmcJr7H5GmP-31" value="Acessar página de conteúdos" style="endArrow=block;endFill=1;html=1;edgeStyle=orthogonalEdgeStyle;align=left;verticalAlign=top;rounded=0;" parent="1" edge="1">
          <mxGeometry x="-1" relative="1" as="geometry">
            <mxPoint x="190" y="470" as="sourcePoint" />
            <mxPoint x="450" y="470" as="targetPoint" />
          </mxGeometry>
        </mxCell>
        <mxCell id="3YAM8sDZicmcJr7H5GmP-32" value="3" style="edgeLabel;resizable=0;html=1;align=left;verticalAlign=bottom;" parent="3YAM8sDZicmcJr7H5GmP-31" connectable="0" vertex="1">
          <mxGeometry x="-1" relative="1" as="geometry" />
        </mxCell>
        <mxCell id="3YAM8sDZicmcJr7H5GmP-33" value="" style="html=1;points=[[0,0,0,0,5],[0,1,0,0,-5],[1,0,0,0,5],[1,1,0,0,-5]];perimeter=orthogonalPerimeter;outlineConnect=0;targetShapes=umlLifeline;portConstraint=eastwest;newEdgeStyle={&quot;curved&quot;:0,&quot;rounded&quot;:0};" parent="1" vertex="1">
          <mxGeometry x="465" y="477.5" width="10" height="25" as="geometry" />
        </mxCell>
        <mxCell id="3YAM8sDZicmcJr7H5GmP-34" style="edgeStyle=orthogonalEdgeStyle;rounded=0;orthogonalLoop=1;jettySize=auto;html=1;curved=0;exitX=1;exitY=0;exitDx=0;exitDy=5;exitPerimeter=0;" parent="1" source="3YAM8sDZicmcJr7H5GmP-27" target="3YAM8sDZicmcJr7H5GmP-33" edge="1">
          <mxGeometry relative="1" as="geometry">
            <Array as="points">
              <mxPoint x="465" y="470" />
              <mxPoint x="485" y="470" />
              <mxPoint x="485" y="480" />
            </Array>
          </mxGeometry>
        </mxCell>
        <mxCell id="3YAM8sDZicmcJr7H5GmP-35" value="4 exibir página de conteúdos ()" style="text;html=1;align=center;verticalAlign=middle;whiteSpace=wrap;rounded=0;fontSize=11;" parent="1" vertex="1">
          <mxGeometry x="449" y="454" width="145" height="30" as="geometry" />
        </mxCell>
        <mxCell id="3YAM8sDZicmcJr7H5GmP-36" value="" style="endArrow=none;dashed=1;html=1;dashPattern=1 3;strokeWidth=2;rounded=0;" parent="1" edge="1">
          <mxGeometry width="50" height="50" relative="1" as="geometry">
            <mxPoint x="180" y="570" as="sourcePoint" />
            <mxPoint x="179.66" y="510" as="targetPoint" />
          </mxGeometry>
        </mxCell>
        <mxCell id="3YAM8sDZicmcJr7H5GmP-37" value="" style="html=1;points=[[0,0,0,0,5],[0,1,0,0,-5],[1,0,0,0,5],[1,1,0,0,-5]];perimeter=orthogonalPerimeter;outlineConnect=0;targetShapes=umlLifeline;portConstraint=eastwest;newEdgeStyle={&quot;curved&quot;:0,&quot;rounded&quot;:0};" parent="1" vertex="1">
          <mxGeometry x="175" y="570" width="10" height="40" as="geometry" />
        </mxCell>
        <mxCell id="3YAM8sDZicmcJr7H5GmP-39" value="" style="html=1;points=[[0,0,0,0,5],[0,1,0,0,-5],[1,0,0,0,5],[1,1,0,0,-5]];perimeter=orthogonalPerimeter;outlineConnect=0;targetShapes=umlLifeline;portConstraint=eastwest;newEdgeStyle={&quot;curved&quot;:0,&quot;rounded&quot;:0};" parent="1" vertex="1">
          <mxGeometry x="455" y="570" width="10" height="40" as="geometry" />
        </mxCell>
        <mxCell id="3YAM8sDZicmcJr7H5GmP-42" value="5 acessar página de cadastro ()" style="text;html=1;align=center;verticalAlign=middle;whiteSpace=wrap;rounded=0;fontSize=11;" parent="1" vertex="1">
          <mxGeometry x="195" y="570" width="205" height="30" as="geometry" />
        </mxCell>
        <mxCell id="3YAM8sDZicmcJr7H5GmP-44" style="edgeStyle=orthogonalEdgeStyle;rounded=0;orthogonalLoop=1;jettySize=auto;html=1;curved=0;entryX=0;entryY=0;entryDx=0;entryDy=5;entryPerimeter=0;exitX=1;exitY=0;exitDx=0;exitDy=5;exitPerimeter=0;" parent="1" source="3YAM8sDZicmcJr7H5GmP-37" target="3YAM8sDZicmcJr7H5GmP-39" edge="1">
          <mxGeometry relative="1" as="geometry" />
        </mxCell>
        <mxCell id="3YAM8sDZicmcJr7H5GmP-45" value="" style="html=1;points=[[0,0,0,0,5],[0,1,0,0,-5],[1,0,0,0,5],[1,1,0,0,-5]];perimeter=orthogonalPerimeter;outlineConnect=0;targetShapes=umlLifeline;portConstraint=eastwest;newEdgeStyle={&quot;curved&quot;:0,&quot;rounded&quot;:0};" parent="1" vertex="1">
          <mxGeometry x="465" y="581.25" width="10" height="17.5" as="geometry" />
        </mxCell>
        <mxCell id="3YAM8sDZicmcJr7H5GmP-46" style="edgeStyle=orthogonalEdgeStyle;rounded=0;orthogonalLoop=1;jettySize=auto;html=1;curved=0;exitX=1;exitY=0;exitDx=0;exitDy=5;exitPerimeter=0;entryX=1;entryY=0;entryDx=0;entryDy=5;entryPerimeter=0;" parent="1" source="3YAM8sDZicmcJr7H5GmP-39" target="3YAM8sDZicmcJr7H5GmP-45" edge="1">
          <mxGeometry relative="1" as="geometry">
            <Array as="points">
              <mxPoint x="465" y="570" />
              <mxPoint x="480" y="570" />
              <mxPoint x="480" y="586" />
            </Array>
          </mxGeometry>
        </mxCell>
        <mxCell id="3YAM8sDZicmcJr7H5GmP-47" value="6 exibir página de cadastro ()" style="text;html=1;align=center;verticalAlign=middle;whiteSpace=wrap;rounded=0;fontSize=11;" parent="1" vertex="1">
          <mxGeometry x="438" y="547" width="205" height="30" as="geometry" />
        </mxCell>
        <mxCell id="3YAM8sDZicmcJr7H5GmP-48" value="" style="endArrow=none;dashed=1;html=1;dashPattern=1 3;strokeWidth=2;rounded=0;" parent="1" edge="1">
          <mxGeometry width="50" height="50" relative="1" as="geometry">
            <mxPoint x="180.04" y="670" as="sourcePoint" />
            <mxPoint x="179.7" y="610" as="targetPoint" />
          </mxGeometry>
        </mxCell>
        <mxCell id="3YAM8sDZicmcJr7H5GmP-51" value="" style="edgeStyle=orthogonalEdgeStyle;rounded=0;orthogonalLoop=1;jettySize=auto;html=1;curved=0;exitX=1.023;exitY=0.043;exitDx=0;exitDy=0;exitPerimeter=0;" parent="1" source="3YAM8sDZicmcJr7H5GmP-49" target="3YAM8sDZicmcJr7H5GmP-50" edge="1">
          <mxGeometry relative="1" as="geometry">
            <Array as="points">
              <mxPoint x="185" y="670" />
            </Array>
          </mxGeometry>
        </mxCell>
        <mxCell id="3YAM8sDZicmcJr7H5GmP-49" value="" style="html=1;points=[[0,0,0,0,5],[0,1,0,0,-5],[1,0,0,0,5],[1,1,0,0,-5]];perimeter=orthogonalPerimeter;outlineConnect=0;targetShapes=umlLifeline;portConstraint=eastwest;newEdgeStyle={&quot;curved&quot;:0,&quot;rounded&quot;:0};" parent="1" vertex="1">
          <mxGeometry x="175" y="670" width="10" height="50" as="geometry" />
        </mxCell>
        <mxCell id="3YAM8sDZicmcJr7H5GmP-56" style="edgeStyle=orthogonalEdgeStyle;rounded=0;orthogonalLoop=1;jettySize=auto;html=1;curved=0;exitX=1;exitY=0;exitDx=0;exitDy=5;exitPerimeter=0;" parent="1" source="3YAM8sDZicmcJr7H5GmP-50" target="3YAM8sDZicmcJr7H5GmP-55" edge="1">
          <mxGeometry relative="1" as="geometry">
            <Array as="points">
              <mxPoint x="465" y="670" />
              <mxPoint x="485" y="670" />
              <mxPoint x="485" y="690" />
            </Array>
          </mxGeometry>
        </mxCell>
        <mxCell id="3YAM8sDZicmcJr7H5GmP-50" value="" style="html=1;points=[[0,0,0,0,5],[0,1,0,0,-5],[1,0,0,0,5],[1,1,0,0,-5]];perimeter=orthogonalPerimeter;outlineConnect=0;targetShapes=umlLifeline;portConstraint=eastwest;newEdgeStyle={&quot;curved&quot;:0,&quot;rounded&quot;:0};" parent="1" vertex="1">
          <mxGeometry x="455" y="670" width="10" height="40" as="geometry" />
        </mxCell>
        <mxCell id="3YAM8sDZicmcJr7H5GmP-52" value="" style="endArrow=none;dashed=1;html=1;dashPattern=1 3;strokeWidth=2;rounded=0;" parent="1" source="3YAM8sDZicmcJr7H5GmP-39" edge="1">
          <mxGeometry width="50" height="50" relative="1" as="geometry">
            <mxPoint x="460" y="540" as="sourcePoint" />
            <mxPoint x="459.7" y="510" as="targetPoint" />
          </mxGeometry>
        </mxCell>
        <mxCell id="3YAM8sDZicmcJr7H5GmP-53" value="" style="endArrow=none;dashed=1;html=1;dashPattern=1 3;strokeWidth=2;rounded=0;" parent="1" edge="1">
          <mxGeometry width="50" height="50" relative="1" as="geometry">
            <mxPoint x="460.09" y="670" as="sourcePoint" />
            <mxPoint x="459.78999999999996" y="610" as="targetPoint" />
          </mxGeometry>
        </mxCell>
        <mxCell id="3YAM8sDZicmcJr7H5GmP-54" value="7 Solicitar login ()" style="text;html=1;align=center;verticalAlign=middle;whiteSpace=wrap;rounded=0;fontSize=11;" parent="1" vertex="1">
          <mxGeometry x="199" y="663" width="205" height="30" as="geometry" />
        </mxCell>
        <mxCell id="3YAM8sDZicmcJr7H5GmP-55" value="" style="html=1;points=[[0,0,0,0,5],[0,1,0,0,-5],[1,0,0,0,5],[1,1,0,0,-5]];perimeter=orthogonalPerimeter;outlineConnect=0;targetShapes=umlLifeline;portConstraint=eastwest;newEdgeStyle={&quot;curved&quot;:0,&quot;rounded&quot;:0};" parent="1" vertex="1">
          <mxGeometry x="465" y="681.25" width="10" height="17.5" as="geometry" />
        </mxCell>
        <mxCell id="3YAM8sDZicmcJr7H5GmP-57" value="8 Solicita login ()" style="text;html=1;align=center;verticalAlign=middle;whiteSpace=wrap;rounded=0;fontSize=11;" parent="1" vertex="1">
          <mxGeometry x="404" y="651.25" width="205" height="30" as="geometry" />
        </mxCell>
        <mxCell id="3YAM8sDZicmcJr7H5GmP-58" value="" style="endArrow=none;dashed=1;html=1;dashPattern=1 3;strokeWidth=2;rounded=0;" parent="1" edge="1">
          <mxGeometry width="50" height="50" relative="1" as="geometry">
            <mxPoint x="180" y="760" as="sourcePoint" />
            <mxPoint x="179.67" y="720" as="targetPoint" />
          </mxGeometry>
        </mxCell>
        <mxCell id="3YAM8sDZicmcJr7H5GmP-61" value="" style="edgeStyle=orthogonalEdgeStyle;rounded=0;orthogonalLoop=1;jettySize=auto;html=1;curved=0;" parent="1" source="3YAM8sDZicmcJr7H5GmP-59" target="3YAM8sDZicmcJr7H5GmP-60" edge="1">
          <mxGeometry relative="1" as="geometry">
            <Array as="points">
              <mxPoint x="380" y="760" />
              <mxPoint x="380" y="760" />
            </Array>
          </mxGeometry>
        </mxCell>
        <mxCell id="3YAM8sDZicmcJr7H5GmP-59" value="" style="html=1;points=[[0,0,0,0,5],[0,1,0,0,-5],[1,0,0,0,5],[1,1,0,0,-5]];perimeter=orthogonalPerimeter;outlineConnect=0;targetShapes=umlLifeline;portConstraint=eastwest;newEdgeStyle={&quot;curved&quot;:0,&quot;rounded&quot;:0};" parent="1" vertex="1">
          <mxGeometry x="175" y="760" width="10" height="50" as="geometry" />
        </mxCell>
        <mxCell id="3YAM8sDZicmcJr7H5GmP-60" value="" style="html=1;points=[[0,0,0,0,5],[0,1,0,0,-5],[1,0,0,0,5],[1,1,0,0,-5]];perimeter=orthogonalPerimeter;outlineConnect=0;targetShapes=umlLifeline;portConstraint=eastwest;newEdgeStyle={&quot;curved&quot;:0,&quot;rounded&quot;:0};" parent="1" vertex="1">
          <mxGeometry x="455" y="760" width="10" height="50" as="geometry" />
        </mxCell>
        <mxCell id="3YAM8sDZicmcJr7H5GmP-62" value="" style="endArrow=none;dashed=1;html=1;dashPattern=1 3;strokeWidth=2;rounded=0;" parent="1" target="3YAM8sDZicmcJr7H5GmP-50" edge="1">
          <mxGeometry width="50" height="50" relative="1" as="geometry">
            <mxPoint x="460" y="760" as="sourcePoint" />
            <mxPoint x="459.56999999999994" y="720" as="targetPoint" />
          </mxGeometry>
        </mxCell>
        <mxCell id="3YAM8sDZicmcJr7H5GmP-63" value="9 informar&amp;nbsp; nome, email e senha ()" style="text;html=1;align=center;verticalAlign=middle;whiteSpace=wrap;rounded=0;fontSize=11;" parent="1" vertex="1">
          <mxGeometry x="199" y="760" width="205" height="30" as="geometry" />
        </mxCell>
        <mxCell id="3YAM8sDZicmcJr7H5GmP-64" value="" style="endArrow=none;dashed=1;html=1;dashPattern=1 3;strokeWidth=2;rounded=0;" parent="1" edge="1">
          <mxGeometry width="50" height="50" relative="1" as="geometry">
            <mxPoint x="179.99" y="847" as="sourcePoint" />
            <mxPoint x="179.66" y="807" as="targetPoint" />
          </mxGeometry>
        </mxCell>
        <mxCell id="3YAM8sDZicmcJr7H5GmP-67" value="" style="edgeStyle=orthogonalEdgeStyle;rounded=0;orthogonalLoop=1;jettySize=auto;html=1;curved=0;" parent="1" source="3YAM8sDZicmcJr7H5GmP-65" target="3YAM8sDZicmcJr7H5GmP-66" edge="1">
          <mxGeometry relative="1" as="geometry">
            <Array as="points">
              <mxPoint x="390" y="850" />
              <mxPoint x="390" y="850" />
            </Array>
          </mxGeometry>
        </mxCell>
        <mxCell id="3YAM8sDZicmcJr7H5GmP-65" value="" style="html=1;points=[[0,0,0,0,5],[0,1,0,0,-5],[1,0,0,0,5],[1,1,0,0,-5]];perimeter=orthogonalPerimeter;outlineConnect=0;targetShapes=umlLifeline;portConstraint=eastwest;newEdgeStyle={&quot;curved&quot;:0,&quot;rounded&quot;:0};" parent="1" vertex="1">
          <mxGeometry x="175" y="850" width="10" height="50" as="geometry" />
        </mxCell>
        <mxCell id="3YAM8sDZicmcJr7H5GmP-66" value="" style="html=1;points=[[0,0,0,0,5],[0,1,0,0,-5],[1,0,0,0,5],[1,1,0,0,-5]];perimeter=orthogonalPerimeter;outlineConnect=0;targetShapes=umlLifeline;portConstraint=eastwest;newEdgeStyle={&quot;curved&quot;:0,&quot;rounded&quot;:0};" parent="1" vertex="1">
          <mxGeometry x="455" y="850" width="10" height="50" as="geometry" />
        </mxCell>
        <mxCell id="3YAM8sDZicmcJr7H5GmP-68" value="" style="endArrow=none;dashed=1;html=1;dashPattern=1 3;strokeWidth=2;rounded=0;" parent="1" edge="1">
          <mxGeometry width="50" height="50" relative="1" as="geometry">
            <mxPoint x="460" y="850" as="sourcePoint" />
            <mxPoint x="459.66" y="810" as="targetPoint" />
          </mxGeometry>
        </mxCell>
        <mxCell id="3YAM8sDZicmcJr7H5GmP-69" value="10 aceitar termos de uso ()" style="text;html=1;align=center;verticalAlign=middle;whiteSpace=wrap;rounded=0;fontSize=11;" parent="1" vertex="1">
          <mxGeometry x="209" y="850" width="205" height="30" as="geometry" />
        </mxCell>
        <mxCell id="3YAM8sDZicmcJr7H5GmP-70" value="" style="endArrow=none;dashed=1;html=1;dashPattern=1 3;strokeWidth=2;rounded=0;" parent="1" edge="1">
          <mxGeometry width="50" height="50" relative="1" as="geometry">
            <mxPoint x="179.99" y="940" as="sourcePoint" />
            <mxPoint x="179.66" y="900" as="targetPoint" />
          </mxGeometry>
        </mxCell>
        <mxCell id="3YAM8sDZicmcJr7H5GmP-71" value="" style="endArrow=none;dashed=1;html=1;dashPattern=1 3;strokeWidth=2;rounded=0;" parent="1" edge="1">
          <mxGeometry width="50" height="50" relative="1" as="geometry">
            <mxPoint x="459.99" y="940" as="sourcePoint" />
            <mxPoint x="459.65999999999997" y="900" as="targetPoint" />
          </mxGeometry>
        </mxCell>
        <mxCell id="3YAM8sDZicmcJr7H5GmP-74" value="" style="edgeStyle=orthogonalEdgeStyle;rounded=0;orthogonalLoop=1;jettySize=auto;html=1;curved=0;" parent="1" edge="1">
          <mxGeometry relative="1" as="geometry">
            <mxPoint x="184.9999999999999" y="940" as="sourcePoint" />
            <mxPoint x="455" y="940" as="targetPoint" />
          </mxGeometry>
        </mxCell>
        <mxCell id="3YAM8sDZicmcJr7H5GmP-72" value="" style="html=1;points=[[0,0,0,0,5],[0,1,0,0,-5],[1,0,0,0,5],[1,1,0,0,-5]];perimeter=orthogonalPerimeter;outlineConnect=0;targetShapes=umlLifeline;portConstraint=eastwest;newEdgeStyle={&quot;curved&quot;:0,&quot;rounded&quot;:0};" parent="1" vertex="1">
          <mxGeometry x="175" y="940" width="10" height="50" as="geometry" />
        </mxCell>
        <mxCell id="9fFpn3AAPIV-vBVCqDcS-3" style="edgeStyle=orthogonalEdgeStyle;rounded=0;orthogonalLoop=1;jettySize=auto;html=1;curved=0;exitX=1;exitY=0;exitDx=0;exitDy=5;exitPerimeter=0;" edge="1" parent="1" source="3YAM8sDZicmcJr7H5GmP-73" target="9fFpn3AAPIV-vBVCqDcS-2">
          <mxGeometry relative="1" as="geometry">
            <Array as="points">
              <mxPoint x="465" y="940" />
              <mxPoint x="485" y="940" />
              <mxPoint x="485" y="965" />
            </Array>
          </mxGeometry>
        </mxCell>
        <mxCell id="3YAM8sDZicmcJr7H5GmP-73" value="" style="html=1;points=[[0,0,0,0,5],[0,1,0,0,-5],[1,0,0,0,5],[1,1,0,0,-5]];perimeter=orthogonalPerimeter;outlineConnect=0;targetShapes=umlLifeline;portConstraint=eastwest;newEdgeStyle={&quot;curved&quot;:0,&quot;rounded&quot;:0};" parent="1" vertex="1">
          <mxGeometry x="455" y="940" width="10" height="50" as="geometry" />
        </mxCell>
        <mxCell id="3YAM8sDZicmcJr7H5GmP-75" value="11 selecionar registrar ()" style="text;html=1;align=center;verticalAlign=middle;whiteSpace=wrap;rounded=0;fontSize=11;" parent="1" vertex="1">
          <mxGeometry x="209" y="940" width="205" height="30" as="geometry" />
        </mxCell>
        <mxCell id="9fFpn3AAPIV-vBVCqDcS-2" value="" style="html=1;points=[[0,0,0,0,5],[0,1,0,0,-5],[1,0,0,0,5],[1,1,0,0,-5]];perimeter=orthogonalPerimeter;outlineConnect=0;targetShapes=umlLifeline;portConstraint=eastwest;newEdgeStyle={&quot;curved&quot;:0,&quot;rounded&quot;:0};" vertex="1" parent="1">
          <mxGeometry x="465" y="956.25" width="10" height="17.5" as="geometry" />
        </mxCell>
        <mxCell id="9fFpn3AAPIV-vBVCqDcS-4" value="&amp;nbsp;12 valida&amp;nbsp; nome, email e senha ()" style="text;html=1;align=center;verticalAlign=middle;whiteSpace=wrap;rounded=0;fontSize=11;" vertex="1" parent="1">
          <mxGeometry x="449" y="920" width="205" height="30" as="geometry" />
        </mxCell>
        <mxCell id="9fFpn3AAPIV-vBVCqDcS-6" value="" style="endArrow=none;dashed=1;html=1;dashPattern=1 3;strokeWidth=2;rounded=0;" edge="1" parent="1">
          <mxGeometry width="50" height="50" relative="1" as="geometry">
            <mxPoint x="459.99" y="1030" as="sourcePoint" />
            <mxPoint x="459.65999999999997" y="990" as="targetPoint" />
          </mxGeometry>
        </mxCell>
        <mxCell id="9fFpn3AAPIV-vBVCqDcS-8" style="edgeStyle=orthogonalEdgeStyle;rounded=0;orthogonalLoop=1;jettySize=auto;html=1;curved=0;" edge="1" parent="1" source="9fFpn3AAPIV-vBVCqDcS-7" target="3YAM8sDZicmcJr7H5GmP-12">
          <mxGeometry relative="1" as="geometry">
            <Array as="points">
              <mxPoint x="660" y="1030" />
              <mxPoint x="660" y="1030" />
            </Array>
          </mxGeometry>
        </mxCell>
        <mxCell id="9fFpn3AAPIV-vBVCqDcS-7" value="" style="html=1;points=[[0,0,0,0,5],[0,1,0,0,-5],[1,0,0,0,5],[1,1,0,0,-5]];perimeter=orthogonalPerimeter;outlineConnect=0;targetShapes=umlLifeline;portConstraint=eastwest;newEdgeStyle={&quot;curved&quot;:0,&quot;rounded&quot;:0};" vertex="1" parent="1">
          <mxGeometry x="455" y="1030" width="10" height="50" as="geometry" />
        </mxCell>
        <mxCell id="9fFpn3AAPIV-vBVCqDcS-9" value="13 cadastrar(nome, email, senha)" style="text;html=1;align=center;verticalAlign=middle;whiteSpace=wrap;rounded=0;fontSize=11;" vertex="1" parent="1">
          <mxGeometry x="480" y="1030" width="205" height="30" as="geometry" />
        </mxCell>
      </root>
    </mxGraphModel>
  </diagram>
</mxfile>
